<svg width="100" height="100" viewBox="0 0 100 100" fill="none" xmlns="http://www.w3.org/2000/svg">
<path d="M14.3669 75.665L10.7729 73.59L50.8105 4.24501L54.4044 6.32001L14.3669 75.665Z" fill="#E10098"/>
<path d="M9.9502 68.05H90.0252V72.2H9.9502V68.05Z" fill="#E10098"/>
<path d="M51.5872 93.5065L11.5347 70.3815L13.6097 66.7875L53.6622 89.9125L51.5872 93.5065ZM86.3807 33.2368L46.3282 10.1117L48.4032 6.51775L88.4557 29.6427L86.3807 33.2368Z" fill="#E10098"/>
<path d="M13.6209 33.2207L11.5459 29.627L51.5984 6.502L53.6734 10.096L13.6209 33.2207Z" fill="#E10098"/>
<path d="M85.642 75.6657L45.6045 6.32074L49.1985 4.24574L89.236 73.5907L85.642 75.6657ZM13.125 26.875H17.275V73.125H13.125V26.875ZM82.725 26.875H86.875V73.125H82.725V26.875Z" fill="#E10098"/>
<path d="M50.8804 91.75L49.0679 88.6105L83.9029 68.498L85.7154 71.6372L50.8804 91.75Z" fill="#E10098"/>
<path d="M92.3751 74.475C89.9751 78.65 84.6251 80.075 80.4501 77.675C76.2751 75.275 74.8501 69.925 77.2501 65.75C79.6501 61.575 85.0001 60.15 89.1751 62.55C93.3751 64.975 94.8001 70.3 92.3751 74.475ZM22.7251 34.25C20.3251 38.425 14.9751 39.85 10.8001 37.45C6.62508 35.05 5.20008 29.7 7.60008 25.525C10.0001 21.35 15.3501 19.925 19.5251 22.325C23.7001 24.75 25.1251 30.075 22.7251 34.25ZM7.62508 74.475C5.22508 70.3 6.65007 64.975 10.8251 62.55C15.0001 60.15 20.3251 61.575 22.7501 65.75C25.1501 69.925 23.7251 75.25 19.5501 77.675C15.3501 80.075 10.0251 78.65 7.62508 74.475ZM77.2751 34.25C74.8751 30.075 76.3001 24.75 80.4751 22.325C84.6501 19.925 89.9751 21.35 92.4001 25.525C94.8001 29.7 93.3751 35.025 89.2001 37.45C85.0251 39.85 79.6751 38.425 77.2751 34.25ZM50.0001 98.95C45.1751 98.95 41.2751 95.05 41.2751 90.225C41.2751 85.4 45.1751 81.5 50.0001 81.5C54.8251 81.5 58.7251 85.4 58.7251 90.225C58.7251 95.025 54.8251 98.95 50.0001 98.95ZM50.0001 18.5C45.1751 18.5 41.2751 14.6 41.2751 9.775C41.2751 4.95 45.1751 1.05 50.0001 1.05C54.8251 1.05 58.7251 4.95 58.7251 9.775C58.7251 14.6 54.8251 18.5 50.0001 18.5Z" fill="#E10098"/>
</svg>
