<svg width="50" height="51" viewBox="0 0 50 51" fill="none" xmlns="http://www.w3.org/2000/svg">
<path fill-rule="evenodd" clip-rule="evenodd" d="M21.2632 19.253L25 14.6686L28.7367 19.253H21.2632ZM14.2633 32.0413H10.8395H9.91412H4.60258H2.14887C0.463344 32.0413 -0.46631 30.0842 0.598609 28.7777L2.14887 26.8758L5.50471 22.7587L6.0894 22.0413L23.4497 0.742772C24.25 -0.239088 25.7499 -0.239085 26.5502 0.742774L43.9106 22.0413L44.4953 22.7587L47.8511 26.8758L49.4014 28.7777C50.4663 30.0842 49.5366 32.0413 47.8511 32.0413H45.3974H40.0858H39.1604H35.4765L30.5046 41.6096L30.2228 42.1518L27.9574 46.5116L26.6446 49.0381C25.8978 50.4752 23.8419 50.4752 23.0951 49.0381L21.7823 46.5116L19.5169 42.1518L19.2351 41.6096L14.2633 32.0413Z" fill="white"/>
</svg>
