<svg width="304" height="346" viewBox="0 0 304 346" fill="none" xmlns="http://www.w3.org/2000/svg">
<path fill-rule="evenodd" clip-rule="evenodd" d="M145.834 7.52201L145.851 7.49916L147.015 5.86018L150.337 1.1836C151.135 0.0612881 152.801 0.0612724 153.598 1.18358L156.92 5.86023L158.085 7.49917L158.101 7.522L246.541 132.017C247.597 132.215 248.301 133.23 248.144 134.273L298.647 205.366L299.013 205.881L301.877 209.912L303.508 212.208C304.448 213.532 303.502 215.366 301.877 215.366H299.062H294.116H293.485H211.502L156.717 336.339L156.254 337.361L153.99 342.361L153.05 344.437C152.34 346.003 150.115 346.003 149.406 344.437L148.466 342.361L146.201 337.361L145.739 336.339L90.9532 215.366H10.4506H9.81911H4.87362H2.05824C0.433861 215.366 -0.512933 213.532 0.427801 212.208L2.05824 209.913L4.92238 205.881L5.2881 205.366L54.8371 135.617L54.4702 134.807C53.8707 133.483 54.8387 131.982 56.2921 131.982H57.4193L145.834 7.52201ZM59.6125 146.162L17.5545 205.366H86.4245L59.6125 146.162ZM101.931 215.366L151.228 324.219L200.525 215.366H101.931ZM205.053 205.366H97.4022L68.6973 141.982H233.758L205.053 205.366ZM216.031 205.366H286.381L243.419 144.89L216.031 205.366ZM234.25 131.982H69.6858L151.968 16.1556L234.25 131.982Z" fill="white" fill-opacity="0.2"/>
</svg>
